<?xml version="1.0" encoding="UTF-8" standalone="no"?>
<svg
   xmlns:dc="http://purl.org/dc/elements/1.1/"
   xmlns:cc="http://creativecommons.org/ns#"
   xmlns:rdf="http://www.w3.org/1999/02/22-rdf-syntax-ns#"
   xmlns:svg="http://www.w3.org/2000/svg"
   xmlns="http://www.w3.org/2000/svg"
   xmlns:sodipodi="http://sodipodi.sourceforge.net/DTD/sodipodi-0.dtd"
   xmlns:inkscape="http://www.inkscape.org/namespaces/inkscape"
   width="840"
   x="0"
   y="0"
   height="1114"
   id="/home/andrea/Google Drive/Code/java test/Card/Assignment 1/card management"
   version="1.1"
   inkscape:version="0.48.4 r9939"
   sodipodi:docname="card management.svg">
  <metadata
     id="metadata399">
    <rdf:RDF>
      <cc:Work
         rdf:about="">
        <dc:format>image/svg+xml</dc:format>
        <dc:type
           rdf:resource="http://purl.org/dc/dcmitype/StillImage" />
      </cc:Work>
    </rdf:RDF>
  </metadata>
  <defs
     id="defs397" />
  <sodipodi:namedview
     pagecolor="#ffffff"
     bordercolor="#666666"
     borderopacity="1"
     objecttolerance="10"
     gridtolerance="10"
     guidetolerance="10"
     inkscape:pageopacity="0"
     inkscape:pageshadow="2"
     inkscape:window-width="1103"
     inkscape:window-height="808"
     id="namedview395"
     showgrid="false"
     inkscape:zoom="0.84739677"
     inkscape:cx="420"
     inkscape:cy="166.54131"
     inkscape:window-x="0"
     inkscape:window-y="0"
     inkscape:window-maximized="0"
     inkscape:current-layer="/home/andrea/Google Drive/Code/java test/Card/Assignment 1/card management" />
  <rect
     width="840"
     x="6"
     y="9"
     height="1114"
     transform="translate(-6,-9)"
     style="stroke:rgb(0,0,0);stroke-width:0;fill:rgb(255,255,255);"
     id="rect3" />
  <line
     transform="translate(-6,-9)"
     style="stroke:rgb(255,0,0);stroke-width:0.9;fill:none;"
     y1="102"
     y2="510"
     x1="101"
     x2="103"
     id="line5" />
  <line
     transform="translate(-6,-9)"
     style="stroke:rgb(255,0,0);stroke-width:0.9;fill:none;"
     y1="280"
     y2="104"
     x1="718"
     x2="538"
     id="line7" />
  <line
     transform="translate(-6,-9)"
     style="stroke:rgb(255,0,0);stroke-width:0.9;stroke-dasharray:18,6;fill:none;"
     y1="1066"
     y2="500"
     x1="511"
     x2="321"
     id="line9" />
  <line
     transform="translate(-6,-9)"
     style="stroke:rgb(255,0,0);stroke-width:0.9;fill:none;"
     y1="457"
     y2="104"
     x1="342"
     x2="511"
     id="line11" />
  <line
     transform="translate(-6,-9)"
     style="stroke:rgb(255,0,0);stroke-width:0.9;stroke-dasharray:18,6;fill:none;"
     y1="924"
     y2="647"
     x1="583"
     x2="583"
     id="line13" />
  <line
     transform="translate(-6,-9)"
     style="stroke:rgb(255,0,0);stroke-width:0.9;stroke-dasharray:18,6;fill:none;"
     y1="945"
     y2="944"
     x1="539"
     x2="420"
     id="line15" />
  <line
     transform="translate(-6,-9)"
     style="stroke:rgb(255,0,0);stroke-width:0.9;stroke-dasharray:18,6;fill:none;"
     y1="1066"
     y2="647"
     x1="530"
     x2="527"
     id="line17" />
  <line
     transform="translate(-6,-9)"
     style="stroke:rgb(255,0,0);stroke-width:0.9;stroke-dasharray:18,6;fill:none;"
     y1="1087"
     y2="1085"
     x1="492"
     x2="449"
     id="line19" />
  <line
     transform="translate(-6,-9)"
     style="stroke:rgb(255,0,0);stroke-width:0.9;fill:none;"
     y1="80"
     y2="75"
     x1="143"
     x2="503"
     id="line21" />
  <line
     transform="translate(-6,-9)"
     style="stroke:rgb(255,0,0);stroke-width:0.9;fill:none;"
     y1="59"
     y2="9"
     x1="80"
     x2="80"
     id="line23" />
  <line
     transform="translate(-6,-9)"
     style="stroke:rgb(255,0,0);stroke-width:0.9;fill:none;"
     y1="9"
     y2="9"
     x1="80"
     x2="122"
     id="line25" />
  <line
     transform="translate(-6,-9)"
     style="stroke:rgb(255,0,0);stroke-width:0.9;fill:none;"
     y1="9"
     y2="59"
     x1="122"
     x2="122"
     id="line27" />
  <line
     transform="translate(-6,-9)"
     style="stroke:rgb(255,0,0);stroke-width:0.9;fill:none;"
     y1="104"
     y2="280"
     x1="547"
     x2="782"
     id="line29" />
  <line
     transform="translate(-6,-9)"
     style="stroke:rgb(255,0,0);stroke-width:0.9;stroke-dasharray:18,6;fill:none;"
     y1="104"
     y2="520"
     x1="529"
     x2="490"
     id="line31" />
  <line
     transform="translate(-6,-9)"
     style="stroke:rgb(255,0,0);stroke-width:0.9;stroke-dasharray:18,6;fill:none;"
     y1="433"
     y2="520"
     x1="750"
     x2="564"
     id="line33" />
  <line
     transform="translate(-6,-9)"
     style="stroke:rgb(255,0,0);stroke-width:0.9;stroke-dasharray:18,6;fill:none;"
     y1="612"
     y2="687"
     x1="103"
     x2="174"
     id="line35" />
  <line
     transform="translate(-6,-9)"
     style="stroke:rgb(255,0,0);stroke-width:0.9;stroke-dasharray:18,6;fill:none;"
     y1="814"
     y2="763"
     x1="196"
     x2="194"
     id="line37" />
  <line
     transform="translate(-6,-9)"
     style="stroke:rgb(255,0,0);stroke-width:0.9;fill:none;"
     y1="893"
     y2="856"
     x1="216"
     x2="196"
     id="line39" />
  <line
     transform="translate(-6,-9)"
     style="stroke:rgb(255,0,0);stroke-width:0.9;fill:none;"
     y1="893"
     y2="104"
     x1="284"
     x2="520"
     id="line41" />
  <line
     transform="translate(-6,-9)"
     style="stroke:rgb(255,0,0);stroke-width:0.9;fill:none;"
     y1="893"
     y2="647"
     x1="352"
     x2="471"
     id="line43" />
  <line
     transform="translate(-6,-9)"
     style="stroke:rgb(255,0,0);stroke-width:0.9;fill:none;"
     y1="1047"
     y2="995"
     x1="285"
     x2="284"
     id="line45" />
  <line
     transform="translate(-6,-9)"
     style="stroke:rgb(255,0,0);stroke-width:0.9;stroke-dasharray:18,6;fill:none;"
     y1="386"
     y2="687"
     x1="218"
     x2="215"
     id="line47" />
  <line
     transform="translate(-6,-9)"
     style="stroke:rgb(255,0,0);stroke-width:0.9;stroke-dasharray:18,6;fill:none;"
     y1="89"
     y2="127"
     x1="503"
     x2="472"
     id="line49" />
  <line
     transform="translate(-6,-9)"
     style="stroke:rgb(255,0,0);stroke-width:0.9;stroke-dasharray:18,6;fill:none;"
     y1="127"
     y2="263"
     x1="472"
     x2="369"
     id="line51" />
  <line
     transform="translate(-6,-9)"
     style="stroke:rgb(255,0,0);stroke-width:0.9;stroke-dasharray:18,6;fill:none;"
     y1="457"
     y2="386"
     x1="299"
     x2="293"
     id="line53" />
  <polygon
     points="101 102 97 112 101 124 105 112"
     transform="translate(-6,-9)"
     style="stroke:rgb(0,0,0);stroke-width:0;fill:rgb(255,0,0);"
     id="polygon55" />
  <polygon
     points="718 280 714 270 702 265 708 276"
     transform="translate(-6,-9)"
     style="stroke:rgb(0,0,0);stroke-width:0;fill:rgb(255,0,0);"
     id="polygon57" />
  <polygon
     points="342 457 350 450 351 437 343 446"
     transform="translate(-6,-9)"
     style="stroke:rgb(0,0,0);stroke-width:0;fill:rgb(255,0,0);"
     id="polygon59" />
  <polygon
     points="583 647 576 658 590 658 583 647"
     transform="translate(-6,-9)"
     style="stroke:rgb(0,0,0);stroke-width:0;fill:rgb(255,255,255);"
     id="polygon61" />
  <polygon
     points="527 647 521 658 534 658 527 647"
     transform="translate(-6,-9)"
     style="stroke:rgb(0,0,0);stroke-width:0;fill:rgb(255,255,255);"
     id="polygon63" />
  <polygon
     points="143 80 153 84 165 80 153 76"
     transform="translate(-6,-9)"
     style="stroke:rgb(0,0,0);stroke-width:0;fill:rgb(255,255,255);"
     id="polygon65" />
  <polygon
     points="80 59 84 49 80 37 76 49"
     transform="translate(-6,-9)"
     style="stroke:rgb(0,0,0);stroke-width:0;fill:rgb(255,0,0);"
     id="polygon67" />
  <polygon
     points="547 104 553 113 565 117 558 107"
     transform="translate(-6,-9)"
     style="stroke:rgb(0,0,0);stroke-width:0;fill:rgb(255,0,0);"
     id="polygon69" />
  <polygon
     points="194 763 188 775 201 774 194 763"
     transform="translate(-6,-9)"
     style="stroke:rgb(0,0,0);stroke-width:0;fill:rgb(255,255,255);"
     id="polygon71" />
  <polygon
     points="196 856 196 869 207 863 196 856"
     transform="translate(-6,-9)"
     style="stroke:rgb(0,0,0);stroke-width:0;fill:rgb(255,255,255);"
     id="polygon73" />
  <polygon
     points="284 893 291 884 290 872 283 882"
     transform="translate(-6,-9)"
     style="stroke:rgb(0,0,0);stroke-width:0;fill:rgb(255,0,0);"
     id="polygon75" />
  <polygon
     points="352 893 360 886 362 873 353 882"
     transform="translate(-6,-9)"
     style="stroke:rgb(0,0,0);stroke-width:0;fill:rgb(255,0,0);"
     id="polygon77" />
  <polygon
     points="284 995 278 1006 291 1006 284 995"
     transform="translate(-6,-9)"
     style="stroke:rgb(0,0,0);stroke-width:0;fill:rgb(255,255,255);"
     id="polygon79" />
  <polygon
     points="293 386 287 398 300 397 293 386"
     transform="translate(-6,-9)"
     style="stroke:rgb(0,0,0);stroke-width:0;fill:rgb(255,255,255);"
     id="polygon81" />
  <line
     transform="translate(-6,-9)"
     style="stroke:rgb(255,0,0);stroke-width:0.9;fill:none;"
     y1="500"
     y2="513"
     x1="321"
     x2="318"
     id="line83" />
  <line
     transform="translate(-6,-9)"
     style="stroke:rgb(255,0,0);stroke-width:0.9;fill:none;"
     y1="102"
     y2="112"
     x1="101"
     x2="97"
     id="line85" />
  <line
     transform="translate(-6,-9)"
     style="stroke:rgb(255,0,0);stroke-width:0.9;fill:none;"
     y1="112"
     y2="124"
     x1="97"
     x2="101"
     id="line87" />
  <line
     transform="translate(-6,-9)"
     style="stroke:rgb(255,0,0);stroke-width:0.9;fill:none;"
     y1="124"
     y2="112"
     x1="101"
     x2="105"
     id="line89" />
  <line
     transform="translate(-6,-9)"
     style="stroke:rgb(255,0,0);stroke-width:0.9;fill:none;"
     y1="112"
     y2="102"
     x1="105"
     x2="101"
     id="line91" />
  <line
     transform="translate(-6,-9)"
     style="stroke:rgb(255,0,0);stroke-width:0.9;fill:none;"
     y1="280"
     y2="270"
     x1="718"
     x2="714"
     id="line93" />
  <line
     transform="translate(-6,-9)"
     style="stroke:rgb(255,0,0);stroke-width:0.9;fill:none;"
     y1="270"
     y2="265"
     x1="714"
     x2="702"
     id="line95" />
  <line
     transform="translate(-6,-9)"
     style="stroke:rgb(255,0,0);stroke-width:0.9;fill:none;"
     y1="265"
     y2="276"
     x1="702"
     x2="708"
     id="line97" />
  <line
     transform="translate(-6,-9)"
     style="stroke:rgb(255,0,0);stroke-width:0.9;fill:none;"
     y1="276"
     y2="280"
     x1="708"
     x2="718"
     id="line99" />
  <line
     transform="translate(-6,-9)"
     style="stroke:rgb(255,0,0);stroke-width:0.9;fill:none;"
     y1="104"
     y2="113"
     x1="547"
     x2="553"
     id="line101" />
  <line
     transform="translate(-6,-9)"
     style="stroke:rgb(255,0,0);stroke-width:0.9;fill:none;"
     y1="647"
     y2="658"
     x1="583"
     x2="576"
     id="line103" />
  <line
     transform="translate(-6,-9)"
     style="stroke:rgb(255,0,0);stroke-width:0.9;fill:none;"
     y1="647"
     y2="658"
     x1="583"
     x2="590"
     id="line105" />
  <line
     transform="translate(-6,-9)"
     style="stroke:rgb(255,0,0);stroke-width:0.9;fill:none;"
     y1="658"
     y2="658"
     x1="576"
     x2="590"
     id="line107" />
  <line
     transform="translate(-6,-9)"
     style="stroke:rgb(255,0,0);stroke-width:0.9;fill:none;"
     y1="944"
     y2="951"
     x1="420"
     x2="431"
     id="line109" />
  <line
     transform="translate(-6,-9)"
     style="stroke:rgb(255,0,0);stroke-width:0.9;fill:none;"
     y1="944"
     y2="938"
     x1="420"
     x2="431"
     id="line111" />
  <line
     transform="translate(-6,-9)"
     style="stroke:rgb(255,0,0);stroke-width:0.9;fill:none;"
     y1="647"
     y2="658"
     x1="527"
     x2="521"
     id="line113" />
  <line
     transform="translate(-6,-9)"
     style="stroke:rgb(255,0,0);stroke-width:0.9;fill:none;"
     y1="647"
     y2="658"
     x1="527"
     x2="534"
     id="line115" />
  <line
     transform="translate(-6,-9)"
     style="stroke:rgb(255,0,0);stroke-width:0.9;fill:none;"
     y1="658"
     y2="658"
     x1="521"
     x2="534"
     id="line117" />
  <line
     transform="translate(-6,-9)"
     style="stroke:rgb(255,0,0);stroke-width:0.9;fill:none;"
     y1="1085"
     y2="1092"
     x1="449"
     x2="460"
     id="line119" />
  <line
     transform="translate(-6,-9)"
     style="stroke:rgb(255,0,0);stroke-width:0.9;fill:none;"
     y1="1085"
     y2="1079"
     x1="449"
     x2="461"
     id="line121" />
  <line
     transform="translate(-6,-9)"
     style="stroke:rgb(255,0,0);stroke-width:0.9;fill:none;"
     y1="500"
     y2="509"
     x1="321"
     x2="331"
     id="line123" />
  <rect
     width="226"
     x="143"
     y="140"
     height="246"
     transform="translate(-6,-9)"
     style="stroke:rgb(255,0,0);stroke-width:0.9;fill:rgb(255,255,192);"
     id="rect125" />
  <text
     x="256"
     y="155"
     transform="translate(-6,-9)"
     style="fill:rgb(0,0,0);stroke-width:0;font-size:10;font-style:normal;font-weight:700;font-family:Sans Serif;"
     text-anchor="middle"
     id="text127">«interface»</text>
  <text
     x="256"
     y="172"
     transform="translate(-6,-9)"
     style="fill:rgb(0,0,0);stroke-width:0;font-size:10;font-style:italic;font-weight:700;font-family:Sans Serif;"
     text-anchor="middle"
     id="text129">Creature</text>
  <line
     transform="translate(-6,-9)"
     style="stroke:rgb(255,0,0);stroke-width:0.9;fill:rgb(255,255,192);"
     y1="174"
     y2="174"
     x1="143"
     x2="368"
     id="line131" />
  <line
     transform="translate(-6,-9)"
     style="stroke:rgb(255,0,0);stroke-width:0.9;fill:rgb(255,255,192);"
     y1="182"
     y2="182"
     x1="143"
     x2="368"
     id="line133" />
  <text
     x="148"
     y="197"
     transform="translate(-6,-9)"
     style="fill:rgb(0,0,0);stroke-width:0;font-size:10;font-style:normal;font-weight:400;font-family:Sans Serif;"
     id="text135">+ name() : String</text>
  <text
     x="148"
     y="214"
     transform="translate(-6,-9)"
     style="fill:rgb(0,0,0);stroke-width:0;font-size:10;font-style:normal;font-weight:400;font-family:Sans Serif;"
     id="text137">+ tap() : boolean</text>
  <text
     x="148"
     y="231"
     transform="translate(-6,-9)"
     style="fill:rgb(0,0,0);stroke-width:0;font-size:10;font-style:normal;font-weight:400;font-family:Sans Serif;"
     id="text139">+ untap() : boolean</text>
  <text
     x="148"
     y="248"
     transform="translate(-6,-9)"
     style="fill:rgb(0,0,0);stroke-width:0;font-size:10;font-style:normal;font-weight:400;font-family:Sans Serif;"
     id="text141">+ isTapped() : boolean</text>
  <text
     x="148"
     y="265"
     transform="translate(-6,-9)"
     style="fill:rgb(0,0,0);stroke-width:0;font-size:10;font-style:normal;font-weight:400;font-family:Sans Serif;"
     id="text143">+ attack()</text>
  <text
     x="148"
     y="282"
     transform="translate(-6,-9)"
     style="fill:rgb(0,0,0);stroke-width:0;font-size:10;font-style:normal;font-weight:400;font-family:Sans Serif;"
     id="text145">+ defend(c : Creature)</text>
  <text
     x="148"
     y="299"
     transform="translate(-6,-9)"
     style="fill:rgb(0,0,0);stroke-width:0;font-size:10;font-style:normal;font-weight:400;font-family:Sans Serif;"
     id="text147">+ inflict_damage(dmg : int)</text>
  <text
     x="148"
     y="316"
     transform="translate(-6,-9)"
     style="fill:rgb(0,0,0);stroke-width:0;font-size:10;font-style:normal;font-weight:400;font-family:Sans Serif;"
     id="text149">+ reset_damage()</text>
  <text
     x="148"
     y="333"
     transform="translate(-6,-9)"
     style="fill:rgb(0,0,0);stroke-width:0;font-size:10;font-style:normal;font-weight:400;font-family:Sans Serif;"
     id="text151">+ get_power() : int</text>
  <text
     x="148"
     y="350"
     transform="translate(-6,-9)"
     style="fill:rgb(0,0,0);stroke-width:0;font-size:10;font-style:normal;font-weight:400;font-family:Sans Serif;"
     id="text153">+ get_toughness() : int</text>
  <text
     x="148"
     y="367"
     transform="translate(-6,-9)"
     style="fill:rgb(0,0,0);stroke-width:0;font-size:10;font-style:normal;font-weight:400;font-family:Sans Serif;"
     id="text155">+ effects() : List&lt;Effect&gt;</text>
  <text
     x="148"
     y="384"
     transform="translate(-6,-9)"
     style="fill:rgb(0,0,0);stroke-width:0;font-size:10;font-style:normal;font-weight:400;font-family:Sans Serif;"
     id="text157">+ avaliable_effects() : List&lt;Effect&gt;</text>
  <rect
     width="89"
     x="539"
     y="924"
     height="43"
     transform="translate(-6,-9)"
     style="stroke:rgb(255,0,0);stroke-width:0.9;fill:rgb(255,255,192);"
     id="rect159" />
  <text
     x="583"
     y="952"
     transform="translate(-6,-9)"
     style="fill:rgb(0, 0, 0);stroke-width:0;font-size:10;font-style:normal;font-weight:700;font-family:Sans Serif;text-anchor:middle;text-align:center;writing-mode:lr;line-height:125%"
     text-anchor="middle"
     id="text161"
     sodipodi:linespacing="125%">
    <tspan
       sodipodi:role="line"
       id="tspan3178">Homeopathy</tspan>
  </text>
  <line
     transform="translate(-6,-9)"
     style="stroke:rgb(255,0,0);stroke-width:0.9;fill:none;"
     y1="80"
     y2="84"
     x1="143"
     x2="153"
     id="line163" />
  <line
     transform="translate(-6,-9)"
     style="stroke:rgb(255,0,0);stroke-width:0.9;fill:none;"
     y1="84"
     y2="80"
     x1="153"
     x2="165"
     id="line165" />
  <line
     transform="translate(-6,-9)"
     style="stroke:rgb(255,0,0);stroke-width:0.9;fill:none;"
     y1="80"
     y2="76"
     x1="165"
     x2="153"
     id="line167" />
  <line
     transform="translate(-6,-9)"
     style="stroke:rgb(255,0,0);stroke-width:0.9;fill:none;"
     y1="76"
     y2="80"
     x1="153"
     x2="143"
     id="line169" />
  <line
     transform="translate(-6,-9)"
     style="stroke:rgb(255,0,0);stroke-width:0.9;fill:none;"
     y1="59"
     y2="49"
     x1="80"
     x2="84"
     id="line171" />
  <line
     transform="translate(-6,-9)"
     style="stroke:rgb(255,0,0);stroke-width:0.9;fill:none;"
     y1="49"
     y2="37"
     x1="84"
     x2="80"
     id="line173" />
  <line
     transform="translate(-6,-9)"
     style="stroke:rgb(255,0,0);stroke-width:0.9;fill:none;"
     y1="37"
     y2="49"
     x1="80"
     x2="76"
     id="line175" />
  <line
     transform="translate(-6,-9)"
     style="stroke:rgb(255,0,0);stroke-width:0.9;fill:none;"
     y1="49"
     y2="59"
     x1="76"
     x2="80"
     id="line177" />
  <line
     transform="translate(-6,-9)"
     style="stroke:rgb(255,0,0);stroke-width:0.9;fill:none;"
     y1="113"
     y2="117"
     x1="553"
     x2="565"
     id="line179" />
  <line
     transform="translate(-6,-9)"
     style="stroke:rgb(255,0,0);stroke-width:0.9;fill:none;"
     y1="117"
     y2="107"
     x1="565"
     x2="558"
     id="line181" />
  <line
     transform="translate(-6,-9)"
     style="stroke:rgb(255,0,0);stroke-width:0.9;fill:none;"
     y1="107"
     y2="104"
     x1="558"
     x2="547"
     id="line183" />
  <line
     transform="translate(-6,-9)"
     style="stroke:rgb(255,0,0);stroke-width:0.9;fill:none;"
     y1="520"
     y2="509"
     x1="490"
     x2="498"
     id="line185" />
  <line
     transform="translate(-6,-9)"
     style="stroke:rgb(255,0,0);stroke-width:0.9;fill:none;"
     y1="520"
     y2="508"
     x1="490"
     x2="485"
     id="line187" />
  <line
     transform="translate(-6,-9)"
     style="stroke:rgb(255,0,0);stroke-width:0.9;fill:none;"
     y1="520"
     y2="521"
     x1="564"
     x2="577"
     id="line189" />
  <line
     transform="translate(-6,-9)"
     style="stroke:rgb(255,0,0);stroke-width:0.9;fill:none;"
     y1="520"
     y2="509"
     x1="564"
     x2="571"
     id="line191" />
  <line
     transform="translate(-6,-9)"
     style="stroke:rgb(255,0,0);stroke-width:0.9;fill:none;"
     y1="687"
     y2="674"
     x1="174"
     x2="171"
     id="line193" />
  <line
     transform="translate(-6,-9)"
     style="stroke:rgb(255,0,0);stroke-width:0.9;fill:none;"
     y1="687"
     y2="683"
     x1="174"
     x2="162"
     id="line195" />
  <line
     transform="translate(-6,-9)"
     style="stroke:rgb(255,0,0);stroke-width:0.9;fill:none;"
     y1="763"
     y2="775"
     x1="194"
     x2="188"
     id="line197" />
  <line
     transform="translate(-6,-9)"
     style="stroke:rgb(255,0,0);stroke-width:0.9;fill:none;"
     y1="763"
     y2="774"
     x1="194"
     x2="201"
     id="line199" />
  <line
     transform="translate(-6,-9)"
     style="stroke:rgb(255,0,0);stroke-width:0.9;fill:none;"
     y1="775"
     y2="774"
     x1="188"
     x2="201"
     id="line201" />
  <line
     transform="translate(-6,-9)"
     style="stroke:rgb(255,0,0);stroke-width:0.9;fill:none;"
     y1="856"
     y2="869"
     x1="196"
     x2="196"
     id="line203" />
  <line
     transform="translate(-6,-9)"
     style="stroke:rgb(255,0,0);stroke-width:0.9;fill:none;"
     y1="856"
     y2="863"
     x1="196"
     x2="207"
     id="line205" />
  <line
     transform="translate(-6,-9)"
     style="stroke:rgb(255,0,0);stroke-width:0.9;fill:none;"
     y1="869"
     y2="863"
     x1="196"
     x2="207"
     id="line207" />
  <line
     transform="translate(-6,-9)"
     style="stroke:rgb(255,0,0);stroke-width:0.9;fill:none;"
     y1="893"
     y2="884"
     x1="284"
     x2="291"
     id="line209" />
  <line
     transform="translate(-6,-9)"
     style="stroke:rgb(255,0,0);stroke-width:0.9;fill:none;"
     y1="884"
     y2="872"
     x1="291"
     x2="290"
     id="line211" />
  <line
     transform="translate(-6,-9)"
     style="stroke:rgb(255,0,0);stroke-width:0.9;fill:none;"
     y1="872"
     y2="882"
     x1="290"
     x2="283"
     id="line213" />
  <line
     transform="translate(-6,-9)"
     style="stroke:rgb(255,0,0);stroke-width:0.9;fill:none;"
     y1="882"
     y2="893"
     x1="283"
     x2="284"
     id="line215" />
  <line
     transform="translate(-6,-9)"
     style="stroke:rgb(255,0,0);stroke-width:0.9;fill:none;"
     y1="893"
     y2="886"
     x1="352"
     x2="360"
     id="line217" />
  <line
     transform="translate(-6,-9)"
     style="stroke:rgb(255,0,0);stroke-width:0.9;fill:none;"
     y1="886"
     y2="873"
     x1="360"
     x2="362"
     id="line219" />
  <line
     transform="translate(-6,-9)"
     style="stroke:rgb(255,0,0);stroke-width:0.9;fill:none;"
     y1="873"
     y2="882"
     x1="362"
     x2="353"
     id="line221" />
  <line
     transform="translate(-6,-9)"
     style="stroke:rgb(255,0,0);stroke-width:0.9;fill:none;"
     y1="882"
     y2="893"
     x1="353"
     x2="352"
     id="line223" />
  <line
     transform="translate(-6,-9)"
     style="stroke:rgb(255,0,0);stroke-width:0.9;fill:none;"
     y1="995"
     y2="1006"
     x1="284"
     x2="278"
     id="line225" />
  <line
     transform="translate(-6,-9)"
     style="stroke:rgb(255,0,0);stroke-width:0.9;fill:none;"
     y1="995"
     y2="1006"
     x1="284"
     x2="291"
     id="line227" />
  <line
     transform="translate(-6,-9)"
     style="stroke:rgb(255,0,0);stroke-width:0.9;fill:none;"
     y1="1006"
     y2="1006"
     x1="278"
     x2="291"
     id="line229" />
  <line
     transform="translate(-6,-9)"
     style="stroke:rgb(255,0,0);stroke-width:0.9;fill:none;"
     y1="687"
     y2="676"
     x1="215"
     x2="222"
     id="line231" />
  <line
     transform="translate(-6,-9)"
     style="stroke:rgb(255,0,0);stroke-width:0.9;fill:none;"
     y1="687"
     y2="676"
     x1="215"
     x2="209"
     id="line233" />
  <line
     transform="translate(-6,-9)"
     style="stroke:rgb(255,0,0);stroke-width:0.9;fill:none;"
     y1="263"
     y2="258"
     x1="369"
     x2="381"
     id="line235" />
  <line
     transform="translate(-6,-9)"
     style="stroke:rgb(255,0,0);stroke-width:0.9;fill:none;"
     y1="263"
     y2="250"
     x1="369"
     x2="371"
     id="line237" />
  <line
     transform="translate(-6,-9)"
     style="stroke:rgb(255,0,0);stroke-width:0.9;fill:none;"
     y1="386"
     y2="398"
     x1="293"
     x2="287"
     id="line239" />
  <line
     transform="translate(-6,-9)"
     style="stroke:rgb(255,0,0);stroke-width:0.9;fill:none;"
     y1="386"
     y2="397"
     x1="293"
     x2="300"
     id="line241" />
  <line
     transform="translate(-6,-9)"
     style="stroke:rgb(255,0,0);stroke-width:0.9;fill:none;"
     y1="398"
     y2="397"
     x1="287"
     x2="300"
     id="line243" />
  <line
     transform="translate(-6,-9)"
     style="stroke:rgb(255,0,0);stroke-width:0.9;fill:none;"
     y1="457"
     y2="450"
     x1="342"
     x2="350"
     id="line245" />
  <line
     transform="translate(-6,-9)"
     style="stroke:rgb(255,0,0);stroke-width:0.9;fill:none;"
     y1="450"
     y2="437"
     x1="350"
     x2="351"
     id="line247" />
  <line
     transform="translate(-6,-9)"
     style="stroke:rgb(255,0,0);stroke-width:0.9;fill:none;"
     y1="437"
     y2="446"
     x1="351"
     x2="343"
     id="line249" />
  <line
     transform="translate(-6,-9)"
     style="stroke:rgb(255,0,0);stroke-width:0.9;fill:none;"
     y1="446"
     y2="457"
     x1="343"
     x2="342"
     id="line251" />
  <rect
     width="53"
     x="503"
     y="61"
     height="43"
     transform="translate(-6,-9)"
     style="stroke:rgb(255,0,0);stroke-width:0.9;fill:rgb(255,255,192);"
     id="rect253" />
  <text
     x="529"
     y="89"
     transform="translate(-6,-9)"
     style="fill:rgb(0,0,0);stroke-width:0;font-size:10;font-style:normal;font-weight:700;font-family:Sans Serif;"
     text-anchor="middle"
     id="text255">Player</text>
  <rect
     width="192"
     x="654"
     y="280"
     height="153"
     transform="translate(-6,-9)"
     style="stroke:rgb(255,0,0);stroke-width:0.9;fill:rgb(255,255,192);"
     id="rect257" />
  <text
     x="750"
     y="295"
     transform="translate(-6,-9)"
     style="fill:rgb(0,0,0);stroke-width:0;font-size:10;font-style:normal;font-weight:700;font-family:Sans Serif;"
     text-anchor="middle"
     id="text259">Library</text>
  <line
     transform="translate(-6,-9)"
     style="stroke:rgb(255,0,0);stroke-width:0.9;fill:rgb(255,255,192);"
     y1="297"
     y2="297"
     x1="654"
     x2="845"
     id="line261" />
  <text
     x="659"
     y="312"
     transform="translate(-6,-9)"
     style="fill:rgb(0,0,0);stroke-width:0;font-size:10;font-style:normal;font-weight:400;font-family:Sans Serif;"
     id="text263">- cards : ArrayList&lt;Card&gt;</text>
  <text
     x="659"
     y="329"
     transform="translate(-6,-9)"
     style="fill:rgb(0,0,0);stroke-width:0;font-size:10;font-style:normal;font-weight:400;font-family:Sans Serif;"
     id="text265">- rnd : Random</text>
  <text
     x="659"
     y="346"
     transform="translate(-6,-9)"
     style="fill:rgb(0,0,0);stroke-width:0;font-size:10;font-style:normal;font-weight:400;font-family:Sans Serif;"
     id="text267">- owner : Player</text>
  <line
     transform="translate(-6,-9)"
     style="stroke:rgb(255,0,0);stroke-width:0.9;fill:rgb(255,255,192);"
     y1="348"
     y2="348"
     x1="654"
     x2="845"
     id="line269" />
  <text
     x="659"
     y="363"
     transform="translate(-6,-9)"
     style="fill:rgb(0,0,0);stroke-width:0;font-size:10;font-style:normal;font-weight:400;font-family:Sans Serif;"
     id="text271">+ shuffle()</text>
  <text
     x="659"
     y="380"
     transform="translate(-6,-9)"
     style="fill:rgb(0,0,0);stroke-width:0;font-size:10;font-style:normal;font-weight:400;font-family:Sans Serif;"
     id="text273">+ Library(p : Player)</text>
  <text
     x="659"
     y="397"
     transform="translate(-6,-9)"
     style="fill:rgb(0,0,0);stroke-width:0;font-size:10;font-style:normal;font-weight:400;font-family:Sans Serif;"
     id="text275">+ add(c : Card)</text>
  <text
     x="659"
     y="414"
     transform="translate(-6,-9)"
     style="fill:rgb(0,0,0);stroke-width:0;font-size:10;font-style:normal;font-weight:400;font-family:Sans Serif;"
     id="text277">+ add(deck : Iterator&lt;Card&gt;)</text>
  <text
     x="659"
     y="431"
     transform="translate(-6,-9)"
     style="fill:rgb(0,0,0);stroke-width:0;font-size:10;font-style:normal;font-weight:400;font-family:Sans Serif;"
     id="text279">~ draw() : Card</text>
  <rect
     width="223"
     x="416"
     y="520"
     height="127"
     transform="translate(-6,-9)"
     style="stroke:rgb(255,0,0);stroke-width:0.9;fill:rgb(255,255,192);"
     id="rect281" />
  <text
     x="527"
     y="535"
     transform="translate(-6,-9)"
     style="fill:rgb(0,0,0);stroke-width:0;font-size:10;font-style:normal;font-weight:700;font-family:Sans Serif;"
     text-anchor="middle"
     id="text283">«interface»</text>
  <text
     x="527"
     y="552"
     transform="translate(-6,-9)"
     style="fill:rgb(0,0,0);stroke-width:0;font-size:10;font-style:italic;font-weight:700;font-family:Sans Serif;"
     text-anchor="middle"
     id="text285">Card</text>
  <line
     transform="translate(-6,-9)"
     style="stroke:rgb(255,0,0);stroke-width:0.9;fill:rgb(255,255,192);"
     y1="554"
     y2="554"
     x1="416"
     x2="638"
     id="line287" />
  <line
     transform="translate(-6,-9)"
     style="stroke:rgb(255,0,0);stroke-width:0.9;fill:rgb(255,255,192);"
     y1="562"
     y2="562"
     x1="416"
     x2="638"
     id="line289" />
  <text
     x="421"
     y="577"
     transform="translate(-6,-9)"
     style="fill:rgb(0,0,0);stroke-width:0;font-size:10;font-style:normal;font-weight:400;font-family:Sans Serif;"
     id="text291">get_effect(owner : Player) : Effect</text>
  <text
     x="421"
     y="594"
     transform="translate(-6,-9)"
     style="fill:rgb(0,0,0);stroke-width:0;font-size:10;font-style:normal;font-weight:400;font-family:Sans Serif;"
     id="text293">name() : String</text>
  <text
     x="421"
     y="611"
     transform="translate(-6,-9)"
     style="fill:rgb(0,0,0);stroke-width:0;font-size:10;font-style:normal;font-weight:400;font-family:Sans Serif;"
     id="text295">type() : String</text>
  <text
     x="421"
     y="628"
     transform="translate(-6,-9)"
     style="fill:rgb(0,0,0);stroke-width:0;font-size:10;font-style:normal;font-weight:400;font-family:Sans Serif;"
     id="text297">rule_text() : String</text>
  <text
     x="421"
     y="645"
     transform="translate(-6,-9)"
     style="fill:rgb(0,0,0);stroke-width:0;font-size:10;font-style:normal;font-weight:400;font-family:Sans Serif;"
     id="text299">isInstant() : boolean</text>
  <rect
     width="123"
     x="133"
     y="687"
     height="76"
     transform="translate(-6,-9)"
     style="stroke:rgb(255,0,0);stroke-width:0.9;fill:rgb(255,255,192);"
     id="rect301" />
  <text
     x="194"
     y="702"
     transform="translate(-6,-9)"
     style="fill:rgb(0,0,0);stroke-width:0;font-size:10;font-style:normal;font-weight:700;font-family:Sans Serif;"
     text-anchor="middle"
     id="text303">«interface»</text>
  <text
     x="194"
     y="719"
     transform="translate(-6,-9)"
     style="fill:rgb(0,0,0);stroke-width:0;font-size:10;font-style:italic;font-weight:700;font-family:Sans Serif;"
     text-anchor="middle"
     id="text305">Effect</text>
  <line
     transform="translate(-6,-9)"
     style="stroke:rgb(255,0,0);stroke-width:0.9;fill:rgb(255,255,192);"
     y1="721"
     y2="721"
     x1="133"
     x2="255"
     id="line307" />
  <line
     transform="translate(-6,-9)"
     style="stroke:rgb(255,0,0);stroke-width:0.9;fill:rgb(255,255,192);"
     y1="729"
     y2="729"
     x1="133"
     x2="255"
     id="line309" />
  <text
     x="138"
     y="744"
     transform="translate(-6,-9)"
     style="fill:rgb(0,0,0);stroke-width:0;font-size:10;font-style:normal;font-weight:400;font-family:Sans Serif;"
     id="text311">+ play() : boolean</text>
  <text
     x="138"
     y="761"
     transform="translate(-6,-9)"
     style="fill:rgb(0,0,0);stroke-width:0;font-size:10;font-style:normal;font-weight:400;font-family:Sans Serif;"
     id="text313">+ resolve()</text>
  <rect
     width="123"
     x="135"
     y="814"
     height="42"
     transform="translate(-6,-9)"
     style="stroke:rgb(255,0,0);stroke-width:0.9;fill:rgb(255,255,192);"
     id="rect315" />
  <text
     x="196"
     y="829"
     transform="translate(-6,-9)"
     style="fill:rgb(0,0,0);stroke-width:0;font-size:10;font-style:normal;font-weight:700;font-family:Sans Serif;"
     text-anchor="middle"
     id="text317">AbstractEffect</text>
  <line
     transform="translate(-6,-9)"
     style="stroke:rgb(255,0,0);stroke-width:0.9;fill:rgb(255,255,192);"
     y1="831"
     y2="831"
     x1="135"
     x2="257"
     id="line319" />
  <line
     transform="translate(-6,-9)"
     style="stroke:rgb(255,0,0);stroke-width:0.9;fill:rgb(255,255,192);"
     y1="839"
     y2="839"
     x1="135"
     x2="257"
     id="line321" />
  <text
     x="140"
     y="854"
     transform="translate(-6,-9)"
     style="fill:rgb(0,0,0);stroke-width:0;font-size:10;font-style:normal;font-weight:400;font-family:Sans Serif;"
     id="text323">+ play() : boolean</text>
  <rect
     width="271"
     x="149"
     y="893"
     height="102"
     transform="translate(-6,-9)"
     style="stroke:rgb(255,0,0);stroke-width:0.9;fill:rgb(255,255,192);"
     id="rect325" />
  <text
     x="284"
     y="908"
     transform="translate(-6,-9)"
     style="fill:rgb(0,0,0);stroke-width:0;font-size:10;font-style:normal;font-weight:700;font-family:Sans Serif;"
     text-anchor="middle"
     id="text327">AbstractCardEffect</text>
  <line
     transform="translate(-6,-9)"
     style="stroke:rgb(255,0,0);stroke-width:0.9;fill:rgb(255,255,192);"
     y1="910"
     y2="910"
     x1="149"
     x2="419"
     id="line329" />
  <text
     x="154"
     y="925"
     transform="translate(-6,-9)"
     style="fill:rgb(0,0,0);stroke-width:0;font-size:10;font-style:normal;font-weight:400;font-family:Sans Serif;"
     id="text331"># owner : Player</text>
  <text
     x="154"
     y="942"
     transform="translate(-6,-9)"
     style="fill:rgb(0,0,0);stroke-width:0;font-size:10;font-style:normal;font-weight:400;font-family:Sans Serif;"
     id="text333"># card : Card</text>
  <line
     transform="translate(-6,-9)"
     style="stroke:rgb(255,0,0);stroke-width:0.9;fill:rgb(255,255,192);"
     y1="944"
     y2="944"
     x1="149"
     x2="419"
     id="line335" />
  <text
     x="154"
     y="959"
     transform="translate(-6,-9)"
     style="fill:rgb(0,0,0);stroke-width:0;font-size:10;font-style:normal;font-weight:400;font-family:Sans Serif;"
     id="text337"># AbstractCardEffect(p : Player, c : Card)</text>
  <text
     x="154"
     y="976"
     transform="translate(-6,-9)"
     style="fill:rgb(0,0,0);stroke-width:0;font-size:10;font-style:normal;font-weight:400;font-family:Sans Serif;"
     id="text339">+ play() : boolean</text>
  <text
     x="154"
     y="993"
     transform="translate(-6,-9)"
     style="fill:rgb(0,0,0);stroke-width:0;font-size:10;font-style:normal;font-weight:400;font-family:Sans Serif;"
     id="text341">+ toString() : String</text>
  <rect
     width="327"
     x="122"
     y="1047"
     height="76"
     transform="translate(-6,-9)"
     style="stroke:rgb(255,0,0);stroke-width:0.9;fill:rgb(255,255,192);"
     id="rect343" />
  <text
     x="285"
     y="1062"
     transform="translate(-6,-9)"
     style="fill:rgb(0,0,0);stroke-width:0;font-size:10;font-style:normal;font-weight:700;font-family:Sans Serif;"
     text-anchor="middle"
     id="text345">AbstractCreatureCardEffect</text>
  <line
     transform="translate(-6,-9)"
     style="stroke:rgb(255,0,0);stroke-width:0.9;fill:rgb(255,255,192);"
     y1="1064"
     y2="1064"
     x1="122"
     x2="448"
     id="line347" />
  <line
     transform="translate(-6,-9)"
     style="stroke:rgb(255,0,0);stroke-width:0.9;fill:rgb(255,255,192);"
     y1="1072"
     y2="1072"
     x1="122"
     x2="448"
     id="line349" />
  <text
     x="127"
     y="1087"
     transform="translate(-6,-9)"
     style="fill:rgb(0,0,0);stroke-width:0;font-size:10;font-style:normal;font-weight:400;font-family:Sans Serif;"
     id="text351"># AbstractCreatureCardEffect(p : Player, c : Card)</text>
  <text
     x="127"
     y="1104"
     transform="translate(-6,-9)"
     style="fill:rgb(0,0,0);stroke-width:0;font-size:10;font-style:italic;font-weight:400;font-family:Sans Serif;"
     id="text353"># create_creature() : Creature</text>
  <text
     x="127"
     y="1121"
     transform="translate(-6,-9)"
     style="fill:rgb(0,0,0);stroke-width:0;font-size:10;font-style:normal;font-weight:400;font-family:Sans Serif;"
     id="text355">+ resolve()</text>
  <text
     x="83"
     y="504"
     transform="translate(-6,-9)"
     style="fill:rgb(50,50,50);stroke-width:0;font-size:10;font-style:normal;font-weight:400;font-family:Sans Serif;"
     text-anchor="middle"
     id="text357">-stack</text>
  <text
     x="93"
     y="53"
     transform="translate(-6,-9)"
     style="fill:rgb(50,50,50);stroke-width:0;font-size:10;font-style:normal;font-weight:400;font-family:Sans Serif;"
     text-anchor="middle"
     id="text359">+instance</text>
  <text
     x="759"
     y="274"
     transform="translate(-6,-9)"
     style="fill:rgb(50,50,50);stroke-width:0;font-size:10;font-style:normal;font-weight:400;font-family:Sans Serif;"
     text-anchor="middle"
     id="text361">-library</text>
  <text
     x="474"
     y="666"
     transform="translate(-6,-9)"
     style="fill:rgb(50,50,50);stroke-width:0;font-size:10;font-style:normal;font-weight:400;font-family:Sans Serif;"
     text-anchor="middle"
     id="text363">#card</text>
  <rect
     width="130"
     x="256"
     y="457"
     height="43"
     transform="translate(-6,-9)"
     style="stroke:rgb(255,0,0);stroke-width:0.9;fill:rgb(255,255,192);"
     id="rect365" />
  <text
     x="321"
     y="485"
     transform="translate(-6,-9)"
     style="fill:rgb(0,0,0);stroke-width:0;font-size:10;font-style:normal;font-weight:700;font-family:Sans Serif;"
     text-anchor="middle"
     id="text367">AbstractCreature</text>
  <rect
     width="83"
     x="60"
     y="59"
     height="43"
     transform="translate(-6,-9)"
     style="stroke:rgb(255,0,0);stroke-width:0.9;fill:rgb(255,255,192);"
     id="rect369" />
  <text
     x="101"
     y="87"
     transform="translate(-6,-9)"
     style="fill:rgb(0,0,0);stroke-width:0;font-size:10;font-style:normal;font-weight:700;font-family:Sans Serif;"
     text-anchor="middle"
     id="text371">CardGame</text>
  <rect
     width="194"
     x="6"
     y="510"
     height="102"
     transform="translate(-6,-9)"
     style="stroke:rgb(255,0,0);stroke-width:0.9;fill:rgb(255,255,192);"
     id="rect373" />
  <text
     x="103"
     y="525"
     transform="translate(-6,-9)"
     style="fill:rgb(0,0,0);stroke-width:0;font-size:10;font-style:normal;font-weight:700;font-family:Sans Serif;"
     text-anchor="middle"
     id="text375">CardStack</text>
  <line
     transform="translate(-6,-9)"
     style="stroke:rgb(255,0,0);stroke-width:0.9;fill:rgb(255,255,192);"
     y1="527"
     y2="527"
     x1="6"
     x2="199"
     id="line377" />
  <text
     x="11"
     y="542"
     transform="translate(-6,-9)"
     style="fill:rgb(0,0,0);stroke-width:0;font-size:10;font-style:normal;font-weight:400;font-family:Sans Serif;"
     id="text379">- stack : ArrayDeque&lt;Effect&gt;</text>
  <line
     transform="translate(-6,-9)"
     style="stroke:rgb(255,0,0);stroke-width:0.9;fill:rgb(255,255,192);"
     y1="544"
     y2="544"
     x1="6"
     x2="199"
     id="line381" />
  <text
     x="11"
     y="559"
     transform="translate(-6,-9)"
     style="fill:rgb(0,0,0);stroke-width:0;font-size:10;font-style:normal;font-weight:400;font-family:Sans Serif;"
     id="text383">+ iterator() : Iterator&lt;Effect&gt;</text>
  <text
     x="11"
     y="576"
     transform="translate(-6,-9)"
     style="fill:rgb(0,0,0);stroke-width:0;font-size:10;font-style:normal;font-weight:400;font-family:Sans Serif;"
     id="text385">+ add(e : Effect)</text>
  <text
     x="11"
     y="593"
     transform="translate(-6,-9)"
     style="fill:rgb(0,0,0);stroke-width:0;font-size:10;font-style:normal;font-weight:400;font-family:Sans Serif;"
     id="text387">+ remove(e : Effect)</text>
  <text
     x="11"
     y="610"
     transform="translate(-6,-9)"
     style="fill:rgb(0,0,0);stroke-width:0;font-size:10;font-style:normal;font-weight:400;font-family:Sans Serif;"
     id="text389">+ resolve()</text>
  <rect
     width="82.779572"
     x="486.09116"
     y="1057.0912"
     height="42.817707"
     style="fill:#ffffc0;stroke:#ff0000;stroke-width:1.08229125"
     id="rect391" />
  <text
     x="528"
     y="1085"
     style="font-size:10px;font-style:normal;font-weight:700;text-anchor:middle;fill:#000000;stroke-width:0;font-family:Sans Serif;text-align:center;writing-mode:lr;line-height:125%"
     id="text393"
     sodipodi:linespacing="125%">
    <tspan
       sodipodi:role="line"
       id="tspan3376">Reflexologist</tspan>
  </text>
</svg>
